<svg width="82" height="82" viewBox="0 0 82 82" fill="none" xmlns="http://www.w3.org/2000/svg">
<path fill-rule="evenodd" clip-rule="evenodd" d="M81.9114 0L0 81.9114V43.3792L43.3792 0H81.9114Z" fill="#14438F"/>
<path d="M7.5793 48.8953L8.33751 48.1371L12.2114 56.378L11.5153 57.074L3.28694 53.1877L4.03272 52.4419L9.34431 54.9693C9.95474 55.2593 10.5196 55.57 11.0389 55.9015C10.6908 55.3546 10.3746 54.7787 10.0901 54.1738L7.5793 48.8953ZM15.816 52.7734L15.1282 53.4611L10.5873 48.9202L11.275 48.2324L15.816 52.7734ZM9.29873 47.7477C9.14129 47.5902 9.06533 47.4369 9.07085 47.2878C9.07362 47.1359 9.133 47.0019 9.24901 46.8859C9.3595 46.7754 9.49208 46.7174 9.64676 46.7119C9.80144 46.7063 9.95612 46.7809 10.1108 46.9356C10.2655 47.0903 10.3414 47.2463 10.3387 47.4038C10.3332 47.5585 10.2751 47.691 10.1647 47.8015C10.0487 47.9175 9.91469 47.9769 9.76277 47.9797C9.60809 47.9797 9.45341 47.9023 9.29873 47.7477ZM14.7222 44.6196C14.9238 44.4179 15.1213 44.2536 15.3147 44.1265L15.8574 44.8599C15.6282 45.0063 15.4417 45.1513 15.2981 45.2949C14.9307 45.6623 14.765 46.1263 14.8009 46.687C14.8396 47.245 15.0813 47.7463 15.526 48.191L17.9622 50.6272L17.2744 51.315L12.7334 46.774L13.3011 46.2064L14.2209 46.9687L14.254 46.9356C14.1269 46.4716 14.1021 46.0407 14.1794 45.6429C14.2568 45.2452 14.4377 44.9041 14.7222 44.6196ZM21.7201 45.8998C21.8416 45.7783 21.9507 45.6526 22.0474 45.5228C22.1413 45.3902 22.2117 45.2811 22.2587 45.1955L22.7849 45.7216C22.7462 45.8321 22.6647 45.9716 22.5404 46.1401C22.4216 46.3086 22.3042 46.4508 22.1882 46.5669C21.3099 47.4452 20.408 47.4217 19.4827 46.4964L16.7814 43.7951L16.1309 44.4455L15.7994 44.1141L16.164 43.1777L15.4845 41.9182L15.8823 41.5204L16.9347 42.5728L18.2522 41.2553L18.7867 41.7897L17.4691 43.1073L20.1415 45.7796C20.4149 46.0531 20.6898 46.1981 20.966 46.2147C21.2422 46.2313 21.4936 46.1263 21.7201 45.8998ZM19.8432 39.6643L22.789 42.6101C23.1591 42.9802 23.5196 43.1722 23.8704 43.186C24.2212 43.1998 24.5761 43.0272 24.9352 42.6681C25.4103 42.193 25.6271 41.7165 25.5857 41.2387C25.547 40.7581 25.2335 40.2236 24.6452 39.6353L22.2587 37.2488L22.9464 36.561L27.4874 41.102L26.9198 41.6696L26.2113 41.16L26.174 41.1973C26.2569 41.5619 26.232 41.9292 26.0994 42.2994C25.9696 42.6667 25.7445 43.0106 25.4241 43.331C24.8717 43.8834 24.3261 44.1666 23.7875 44.1804C23.2517 44.1914 22.6951 43.9083 22.1178 43.331L19.1471 40.3603L19.8432 39.6643ZM31.7425 36.8469L30.9594 36.3373L30.9263 36.3704C30.9843 36.8814 30.9511 37.3013 30.8268 37.63C30.7025 37.9531 30.4719 38.2832 30.1349 38.6202C29.6847 39.0704 29.2151 39.308 28.7262 39.3328C28.2401 39.3549 27.7829 39.1519 27.3548 38.7238C26.4378 37.8067 26.6905 36.5928 28.113 35.0819L28.8588 34.2864L28.5771 34.0047C28.2207 33.6483 27.881 33.4633 27.5578 33.4495C27.2347 33.4301 26.9046 33.589 26.5676 33.9259C26.1892 34.3044 25.8771 34.8485 25.6312 35.5584L24.8937 35.2435C24.9959 34.8982 25.1451 34.5585 25.3412 34.2243C25.5401 33.8873 25.7735 33.5848 26.0414 33.3169C26.5828 32.7755 27.1035 32.4952 27.6034 32.4758C28.1061 32.4537 28.6226 32.7078 29.153 33.2382L32.2521 36.3373L31.7425 36.8469ZM29.704 37.9158C30.1321 37.4877 30.3503 37.0347 30.3586 36.5569C30.3697 36.0763 30.1639 35.6247 29.7413 35.202L29.3311 34.7919L28.6724 35.5086C28.1448 36.0749 27.8354 36.5555 27.7443 36.9505C27.6531 37.3399 27.7664 37.6935 28.084 38.0111C28.3326 38.2597 28.5964 38.3744 28.8754 38.355C29.1571 38.3329 29.4333 38.1865 29.704 37.9158ZM34.361 34.2284L33.6732 34.9162L27.2264 28.4693L27.9141 27.7816L34.361 34.2284ZM41.5039 27.0855L38.1271 30.4622L32.0698 24.4049L35.4465 21.0281L36.0721 21.6538L33.3997 24.3261L35.3512 26.2776L37.862 23.7668L38.4835 24.3883L35.9727 26.8991L38.2017 29.1281L40.8741 26.4557L41.5039 27.0855ZM43.7412 24.8482L37.4767 22.0308L38.2141 21.2933L41.885 23.0086C42.7358 23.4174 43.2744 23.6964 43.5009 23.8455L43.534 23.8124C43.418 23.6356 43.2109 23.2379 42.9125 22.6191C42.6142 21.9949 41.9734 20.6276 40.9901 18.5174L41.7276 17.7799L44.545 24.0444L43.7412 24.8482ZM48.9989 19.7562C48.3277 20.4274 47.593 20.7533 46.7947 20.734C45.9992 20.7119 45.2383 20.3376 44.5118 19.6112C43.7799 18.8792 43.378 18.1182 43.3061 17.3283C43.2371 16.5355 43.5064 15.8353 44.1141 15.2277C44.6831 14.6587 45.3211 14.3963 46.0282 14.4405C46.7326 14.4819 47.3913 14.8092 48.0045 15.4224L48.4396 15.8574L45.3115 18.9855C45.8584 19.5048 46.397 19.7755 46.9273 19.7976C47.4604 19.817 47.959 19.5946 48.423 19.1306C48.9119 18.6417 49.2931 18.0561 49.5665 17.3738L50.1797 17.987C50.0416 18.3351 49.8856 18.6403 49.7115 18.9027C49.543 19.1651 49.3055 19.4496 48.9989 19.7562ZM44.6817 15.8119C44.3171 16.1765 44.1445 16.5866 44.1638 17.0424C44.1859 17.4954 44.3875 17.9511 44.7687 18.4096L47.1428 16.0356C46.7091 15.6019 46.281 15.3672 45.8584 15.3312C45.433 15.2926 45.0408 15.4528 44.6817 15.8119ZM54.8698 13.7195L51.9323 10.782C51.5622 10.4119 51.2017 10.2199 50.8509 10.2061C50.5001 10.1923 50.1452 10.3649 49.7861 10.724C49.311 11.1991 49.0914 11.6756 49.1273 12.1534C49.1633 12.6313 49.4768 13.1657 50.0679 13.7568L52.4502 16.1392L51.7624 16.8269L47.2215 12.286L47.7808 11.7267L48.5142 12.2363L48.5473 12.2031C48.4644 11.8385 48.4893 11.4684 48.6219 11.0927C48.7517 10.7143 48.9727 10.3691 49.2848 10.0569C49.8317 9.51004 50.3758 9.23107 50.9172 9.22002C51.4558 9.20621 52.0152 9.48933 52.5952 10.0694L55.5576 13.0318L54.8698 13.7195ZM57.9565 9.66334C58.078 9.54181 58.1872 9.41613 58.2838 9.28631C58.3777 9.15373 58.4482 9.04462 58.4951 8.959L59.0213 9.48518C58.9826 9.59567 58.9012 9.73516 58.7769 9.90365C58.6581 10.0721 58.5407 10.2144 58.4247 10.3304C57.5463 11.2088 56.6445 11.1853 55.7192 10.26L53.0178 7.55859L52.3673 8.20908L52.0359 7.87762L52.4005 6.94126L51.721 5.68172L52.1187 5.28398L53.1711 6.33635L54.4887 5.01881L55.0231 5.55328L53.7056 6.87082L56.378 9.54319C56.6514 9.81664 56.9262 9.96165 57.2025 9.97822C57.4787 9.9948 57.73 9.88984 57.9565 9.66334Z" fill="white"/>
</svg>
