<svg width="123" height="85" viewBox="0 0 123 85" fill="none" xmlns="http://www.w3.org/2000/svg">
<path fill-rule="evenodd" clip-rule="evenodd" d="M6.29483 27.3473L35.7636 24.0544L32.8111 28.0728L6.29483 27.3473Z" fill="#FFCC00"/>
<path fill-rule="evenodd" clip-rule="evenodd" d="M42.1141 3.01379L56.375 23.8313L47.6848 24.6684L42.1141 16.52L0 74.5076L42.1141 3.01379Z" fill="white"/>
<path fill-rule="evenodd" clip-rule="evenodd" d="M85.9551 18.306L1.05841 85.0001L59.7731 28.7427L33.7581 28.0729L36.7106 23.9987L85.9551 18.306Z" fill="#FFCC00"/>
<path fill-rule="evenodd" clip-rule="evenodd" d="M59.7731 28.7426L68.9647 42.5279L123 0L67.4049 53.7459L50.4701 28.4636L59.7731 28.7426Z" fill="white"/>
<path fill-rule="evenodd" clip-rule="evenodd" d="M42.5041 69.2613C42.5041 67.6986 43.1168 65.522 45.2337 65.522C47.3505 65.522 48.1861 67.6428 48.1861 69.2613C48.1861 70.9356 47.462 73.0565 45.2894 73.0565C43.1168 73.1123 42.5041 70.8798 42.5041 69.2613ZM48.3533 75.1773H51.5842V58.0433H48.2418V64.7965H48.1861C47.1834 63.6802 46.0136 63.1221 44.3981 63.1221C40.4986 63.1221 39.0503 66.0243 39.0503 69.2613C39.0503 72.4984 40.4986 75.4563 44.3981 75.4563C45.9579 75.4563 47.2948 75.0098 48.2975 73.8378H48.3533V75.1773ZM55.9293 68.2009C56.0965 66.6382 56.9878 65.4662 58.8818 65.4662C60.7201 65.4662 61.5 66.694 61.5557 68.2009H55.9293ZM63.784 71.9961C62.5584 72.61 61.1658 73.1681 59.5503 73.1681C57.4891 73.1681 56.0965 72.1077 55.9293 70.2659H64.731C64.731 66.2475 63.394 63.2896 58.7147 63.2896C54.7595 63.2896 52.8098 66.0243 52.8098 69.3729C52.8098 73.1681 55.2609 75.3447 59.4389 75.3447C61.2215 75.3447 62.6141 75.0098 63.784 74.4517V71.9961ZM69.4103 69.3171C69.4103 67.6986 70.2459 65.6336 72.4185 65.6336C74.591 65.6336 75.2038 67.8102 75.2038 69.3171C75.2038 70.9356 74.591 73.1123 72.3628 73.1123C70.1345 73.1123 69.4103 70.9915 69.4103 69.3171ZM66.0679 75.1773H69.2989V73.782H69.3546C70.3573 75.0098 71.8614 75.4563 73.3098 75.4563C77.2649 75.4563 78.7133 72.4984 78.7133 69.3171C78.7133 66.1359 77.2649 63.2337 73.3098 63.2337C71.5829 63.2337 70.413 63.9035 69.466 65.0197H69.4103V58.2108H66.0679V75.1773ZM80.663 63.7919H82.1114V75.2331H80.663V63.7919ZM82.0557 60.7223H80.6073V58.8247H82.0557V60.7223ZM84.6739 66.4708L84.5625 63.7919H86.0666V65.801C86.4565 65.1313 86.9022 64.5732 87.5149 64.1267C88.1277 63.6802 89.019 63.457 90.1889 63.457C91.6372 63.457 92.7514 63.8477 93.4198 64.629C94.144 65.4104 94.4783 66.4708 94.4783 67.8102V75.1215H92.9185V68.1451C92.9185 66.9731 92.6956 66.1359 92.1943 65.522C91.7486 64.9081 90.9687 64.629 89.9103 64.629C88.6291 64.629 87.6821 65.0755 87.0693 65.8569C86.4565 66.694 86.178 67.6428 86.178 68.759V75.0657H84.6739V66.4708ZM106.734 75.2331H105.174V73.3913C104.728 74.1169 104.171 74.675 103.558 75.0098C102.946 75.3447 102.166 75.5121 101.219 75.5121C99.5475 75.5121 98.2663 74.954 97.375 73.8378C96.4837 72.7216 96.038 71.2705 96.038 69.4846C96.038 67.6428 96.428 66.1917 97.2636 65.1313C98.0992 64.0709 99.4361 63.5128 101.219 63.5128C102.277 63.5128 103.168 63.7919 103.837 64.2942C104.505 64.7965 104.951 65.2988 105.118 65.7452L105.174 58.434H106.734V75.2331ZM101.442 74.2843C102.667 74.2843 103.614 73.782 104.227 72.8332C104.84 71.8844 105.174 70.7682 105.174 69.5404C105.174 68.3125 104.895 67.1963 104.283 66.2475C103.67 65.2987 102.723 64.7965 101.442 64.7965C100.105 64.7965 99.1576 65.2429 98.5448 66.1917C97.9878 67.1405 97.6535 68.2567 97.6535 69.5962C97.6535 70.9356 97.9321 72.0519 98.4891 73.0007C99.1019 73.8378 100.105 74.2843 101.442 74.2843ZM113.92 63.5128C115.814 63.5128 117.318 64.0709 118.265 65.1871C119.268 66.3033 119.769 67.6986 119.769 69.3729C119.769 71.0473 119.268 72.4425 118.265 73.5588C117.262 74.675 115.814 75.2331 113.92 75.2331C111.97 75.2331 110.522 74.675 109.519 73.5588C108.516 72.4425 108.015 71.0473 108.015 69.3171C108.015 67.6428 108.516 66.2475 109.519 65.1313C110.522 64.0709 111.97 63.5128 113.92 63.5128ZM113.92 74.1169C115.257 74.1169 116.26 73.6704 116.984 72.7774C117.708 71.8844 118.098 70.7682 118.098 69.4288C118.098 68.0893 117.708 66.9173 116.984 66.0801C116.26 65.1871 115.257 64.7406 113.92 64.7406C112.583 64.7406 111.58 65.1871 110.856 66.0801C110.132 66.9731 109.798 68.0893 109.798 69.4288C109.798 70.824 110.132 71.9402 110.856 72.7774C111.58 73.6704 112.583 74.1169 113.92 74.1169Z" fill="white"/>
</svg>
