<svg width="21" height="20" viewBox="0 0 21 20" fill="none" xmlns="http://www.w3.org/2000/svg">
<path d="M0.0100098 9.99863C0.0111733 14.918 3.58841 19.1067 8.44701 19.8776V12.8886H5.91001V9.99863H8.45001V7.79863C8.33646 6.75617 8.69253 5.71722 9.42165 4.96356C10.1508 4.2099 11.1774 3.81964 12.223 3.89863C12.9735 3.91075 13.7222 3.97759 14.463 4.09863V6.55763H13.199C12.7639 6.50063 12.3264 6.64435 12.0098 6.94829C11.6932 7.25224 11.5318 7.68351 11.571 8.12063V9.99863H14.342L13.899 12.8896H11.571V19.8776C16.8255 19.0472 20.5101 14.2484 19.9555 8.9577C19.4009 3.667 14.8013 -0.263445 9.48883 0.0138048C4.17637 0.291054 0.0108542 4.67893 0.0100098 9.99863Z" fill="#C1C1C1"/>
</svg>
