<svg width="19" height="18" viewBox="0 0 19 18" fill="none" xmlns="http://www.w3.org/2000/svg">
<path d="M10.0107 18H6.01068V6H10.0107V8C10.8633 6.91525 12.1563 6.26857 13.5357 6.237C16.0163 6.25077 18.0179 8.26938 18.0107 10.75V18H14.0107V11.25C13.8507 10.1326 12.8924 9.30358 11.7637 9.306C11.27 9.32161 10.8039 9.53778 10.4731 9.90462C10.1423 10.2715 9.97533 10.7573 10.0107 11.25V18ZM4.01068 18H0.0106812V6H4.01068V18ZM2.01068 4C0.906112 4 0.0106812 3.10457 0.0106812 2C0.0106812 0.89543 0.906112 0 2.01068 0C3.11525 0 4.01068 0.89543 4.01068 2C4.01068 2.53043 3.79997 3.03914 3.42489 3.41421C3.04982 3.78929 2.54111 4 2.01068 4Z" fill="#C1C1C1"/>
</svg>
