<svg width="23" height="16" viewBox="0 0 23 16" fill="none" xmlns="http://www.w3.org/2000/svg">
<path d="M11.0243 16H11.0023C10.9342 16 4.11651 15.9863 2.39643 15.501C1.45057 15.2363 0.711904 14.4684 0.45763 13.4856C0.148322 11.6727 -0.00104203 9.83425 0.0113987 7.99315C0.00340731 6.14903 0.156813 4.30798 0.46972 2.49272C0.730982 1.50901 1.46641 0.737596 2.41072 0.456751C4.08354 0 10.7133 0 10.9946 0H11.0177C11.087 0 17.9222 0.0137025 19.6247 0.499001C20.5686 0.765069 21.3057 1.53137 21.5613 2.51213C21.8805 4.33176 22.0303 6.17909 22.0086 8.02855C22.0163 9.87043 21.8626 11.7092 21.5492 13.5221C21.2917 14.5037 20.5525 15.2699 19.6071 15.5353C17.9365 15.9954 11.3057 16 11.0243 16ZM8.82612 4.57322L8.82063 11.4245L14.5491 7.99886L8.82612 4.57322Z" fill="#C1C1C1"/>
</svg>
